<!-- icon666.com - MILLIONS vector ICONS FREE --><svg viewBox="0 0 512 512" xmlns="http://www.w3.org/2000/svg"><path d="m241.066406 132.246094h-30v108.820312h81.496094v-30h-51.496094zm0 0" fill="#000000" style="fill: rgb(255, 200, 0);"></path><path d="m512 412.191406v-74.980468l-25.859375-3.960938c-1.011719-2.730469-2.121094-5.410156-3.332031-8.050781l15.480468-21.078125-48.117187-48.121094c1.296875-9.839844 1.957031-19.839844 1.957031-29.929688 0-60.390624-23.507812-117.160156-66.207031-159.859374-42.703125-42.691407-99.472656-66.210938-159.851563-66.210938-60.390624 0-117.160156 23.519531-159.859374 66.210938-42.699219 42.699218-66.210938 99.46875-66.210938 159.859374 0 60.378907 23.511719 117.148438 66.210938 159.851563 42.699218 42.699219 99.46875 66.207031 159.859374 66.207031 10.089844 0 20.089844-.660156 29.929688-1.957031l48.121094 48.128906 21.078125-15.492187c2.640625 1.210937 5.320312 2.320312 8.050781 3.332031l3.960938 25.859375h74.980468l3.957032-25.859375c2.722656-1.011719 5.410156-2.121094 8.050781-3.332031l21.070312 15.492187 53.019531-53.03125-15.480468-21.070312c1.210937-2.640625 2.320312-5.328125 3.332031-8.050781zm-85.289062 35.25-8.429688 4.75c-6.160156 3.46875-12.761719 6.199219-19.589844 8.109375l-9.339844 2.597657-2.921874 19.101562h-23.46875l-2.921876-19.101562-9.328124-2.597657c-6.839844-1.910156-13.429688-4.640625-19.589844-8.109375l-8.441406-4.75-15.558594 11.429688-16.589844-16.589844 11.429688-15.570312-4.75-8.429688c-1.460938-2.589844-2.789063-5.269531-3.980469-8-1.640625-3.761719-3.019531-7.640625-4.128907-11.589844l-2.601562-9.332031-19.101562-2.929687v-23.46875l19.101562-2.921876 2.601562-9.328124c.628907-2.25 1.339844-4.472657 2.148438-6.652344 1.628906-4.46875 3.621094-8.796875 5.960938-12.9375l4.75-8.441406-11.429688-15.558594 16.589844-16.589844 15.558594 11.429688 8.441406-4.75c4.140625-2.332032 8.46875-4.332032 12.9375-5.960938 2.179687-.808594 4.402344-1.519531 6.652344-2.148438l9.328124-2.601562 2.921876-19.101562h23.46875l2.921874 19.101562 9.328126 2.601562c3.960937 1.097657 7.832031 2.476563 11.589843 4.128907 2.742188 1.191406 5.410157 2.519531 8.011719 3.980469l8.429688 4.75 15.558593-11.429688.449219.449219 16.152344 16.140625-11.429688 15.558594 4.75 8.441406c3.46875 6.160156 6.199219 12.75 8.109375 19.589844l2.597657 9.328124 19.101562 2.921876v23.46875l-19.101562 2.929687-2.597657 9.332031c-1.910156 6.839844-4.640625 13.429688-8.109375 19.589844l-4.75 8.429688 11.429688 15.558593-16.601563 16.601563zm-66.300782-210.042968h-23.199218l-3.960938 25.851562c-2.730469 1.019531-5.410156 2.128906-8.050781 3.328125l-21.078125-15.476563-53.019532 53.019532 15.476563 21.078125c-1.199219 2.640625-2.308594 5.332031-3.328125 8.050781l-25.851562 3.960938v23.199218c-3.726563.320313-7.507813.480469-11.328126.480469-74.339843 0-134.820312-60.480469-134.820312-134.820313 0-74.339843 60.480469-134.820312 134.820312-134.820312 74.339844 0 134.820313 60.480469 134.820313 134.820312 0 3.820313-.160156 7.601563-.480469 11.328126zm-330.410156-11.328126c0-108.121093 87.949219-196.070312 196.070312-196.070312 108.109376 0 196.058594 87.949219 196.058594 196.070312 0 13.019532-1.277344 25.738282-3.707031 38.058594-.75-.300781-1.511719-.589844-2.273437-.878906l-3.957032-25.851562h-21.691406c.261719-3.738282.390625-7.519532.390625-11.328126 0-90.890624-73.941406-164.820312-164.820313-164.820312-90.890624 0-164.820312 73.929688-164.820312 164.820312 0 90.878907 73.929688 164.820313 164.820312 164.820313 3.808594 0 7.589844-.128906 11.328126-.390625v21.691406l25.851562 3.957032c.289062.761718.578125 1.523437.878906 2.273437-12.320312 2.429687-25.039062 3.707031-38.058594 3.707031-108.121093 0-196.070312-87.949218-196.070312-196.058594zm0 0" fill="#000000" style="fill: rgb(255, 200, 0);"></path><path d="m397.128906 321.800781c-6.570312-2.640625-13.738281-4.101562-21.238281-4.101562-4.859375 0-9.570313.609375-14.082031 1.761719-20.277344 5.167968-36.257813 21.25-41.269532 41.597656-1.078124 4.371094-1.648437 8.941406-1.648437 13.640625 0 7.660156 1.519531 14.972656 4.28125 21.652343 3.9375 9.589844 10.4375 17.878907 18.628906 24.007813 9.519531 7.121094 21.328125 11.339844 34.089844 11.339844 31.429687 0 57-25.570313 57-57 0-12.929688-4.332031-24.871094-11.609375-34.4375-6.191406-8.152344-14.53125-14.582031-24.152344-18.460938zm-21.238281 79.898438c-2.242187 0-4.410156-.269531-6.492187-.789063-10.546876-2.609375-18.667969-11.441406-20.226563-22.351562-.191406-1.257813-.28125-2.546875-.28125-3.859375 0-14.890625 12.109375-27 27-27 1.238281 0 2.449219.082031 3.640625.25 10.9375 1.480469 19.820312 9.539062 22.519531 20.050781.550781 2.140625.839844 4.390625.839844 6.699219 0 14.890625-12.121094 27-27 27zm0 0" fill="#000000" style="fill: rgb(255, 200, 0);"></path></svg>