<!-- icon666.com - MILLIONS vector ICONS FREE --><svg id="Capa_1" enable-background="new 0 0 512 512" viewBox="0 0 512 512" xmlns="http://www.w3.org/2000/svg"><g><path d="m398.822 0h-180.298c-24.64 0-44.687 20.046-44.687 44.687v256.221c-58.107.109-105.347 47.413-105.347 105.545 0 20.32 5.789 40.052 16.741 57.064l12.613-8.12c-9.39-14.585-14.353-31.509-14.353-48.943 0-49.928 40.619-90.547 90.547-90.547 49.927 0 90.546 40.619 90.546 90.547s-40.619 90.547-90.546 90.547c-25.452 0-49.877-10.808-67.012-29.651l-11.098 10.09c19.972 21.963 48.442 34.56 78.11 34.56h112.134v-15.001h-57.955c30.747-18.468 51.368-52.142 51.368-90.547 0-53.176-39.53-97.286-90.747-104.505v-257.26c0-16.369 13.317-29.686 29.686-29.686h19.012l22.172 29.994h63.785v-15.001h-56.22l-11.083-14.993h104.885l-11.316 14.993h-11.265v15.001h18.736l22.639-29.994h18.953c16.369 0 29.687 13.317 29.687 29.686v422.626c0 16.369-13.318 29.686-29.687 29.686h-67.648v15.001h67.648c24.641 0 44.688-20.046 44.688-44.687v-422.626c-.001-24.641-20.048-44.687-44.688-44.687z" fill="#000000" style="fill: rgb(255, 200, 0);"></path><path d="m301.173 496.999h14.746v15.001h-14.746z" fill="#000000" style="fill: rgb(255, 200, 0);"></path><path d="m203.45 60.985h15.001v15.001h-15.001z" fill="#000000" style="fill: rgb(255, 200, 0);"></path><path d="m233.489 60.985h15.001v15.001h-15.001z" fill="#000000" style="fill: rgb(255, 200, 0);"></path><path d="m121.503 419.331c0 24.748 20.134 44.882 44.883 44.882h52.685v-15.001h-52.685c-16.477 0-29.882-13.405-29.882-29.882s13.405-29.882 29.882-29.882h25.935l-13.829 13.829 10.607 10.607 31.702-31.702-32.2-32.2-10.607 10.607 13.858 13.858h-25.466c-24.748.001-44.883 20.136-44.883 44.884z" fill="#000000" style="fill: rgb(255, 200, 0);"></path><path d="m113.493 353.498h15.001v15.001h-15.001z" fill="#000000" style="fill: rgb(255, 200, 0);"></path><path d="m308.32 436.05c-12.407 0-22.501 10.094-22.501 22.501s10.094 22.501 22.501 22.501 22.501-10.094 22.501-22.501-10.094-22.501-22.501-22.501zm0 30.002c-4.136 0-7.5-3.364-7.5-7.5s3.364-7.5 7.5-7.5 7.5 3.364 7.5 7.5c.001 4.135-3.364 7.5-7.5 7.5z" fill="#000000" style="fill: rgb(255, 200, 0);"></path><path d="m346.003 451.051h15.001v15.001h-15.001z" fill="#000000" style="fill: rgb(255, 200, 0);"></path><path d="m376.004 451.051h15.001v15.001h-15.001z" fill="#000000" style="fill: rgb(255, 200, 0);"></path><path d="m245.598 249.171 54.073 54.074c9.779 9.778 22.778 15.162 36.606 15.162 23.811.671 37.881-16.112 53.036-31.592l-42.428-42.428-15.829 15.828c-2.835 2.955-7.937 2.955-10.772 0l-31.656-31.656c-2.97-2.97-2.97-7.803-.001-10.772l15.829-15.828-42.429-42.428-16.429 16.429c-20.184 20.185-20.184 53.027 0 73.211zm10.607-62.604 5.823-5.823 21.215 21.214-5.222 5.22c-8.818 8.819-8.818 23.169 0 31.987l31.657 31.656c8.417 8.773 23.57 8.775 31.986-.001 0 0 5.222-5.221 5.222-5.221l21.214 21.214-5.824 5.823c-13.685 14.262-38.311 14.264-51.996 0 0 0-54.074-54.073-54.074-54.073-14.336-14.334-14.336-37.66-.001-51.996z" fill="#000000" style="fill: rgb(255, 200, 0);"></path><path d="m320.541 197.519c12.952 5.379 23.032 15.48 28.387 28.441l13.864-5.727c-6.883-16.665-19.845-29.651-36.497-36.568z" fill="#000000" style="fill: rgb(255, 200, 0);"></path><path d="m376.657 214.505 13.864-5.727c-9.944-24.071-28.666-42.83-52.718-52.819l-5.754 13.853c20.352 8.453 36.193 24.326 44.608 44.693z" fill="#000000" style="fill: rgb(255, 200, 0);"></path></g></svg>