<!-- icon666.com - MILLIONS vector ICONS FREE --><svg viewBox="0 0 512 512.02017" xmlns="http://www.w3.org/2000/svg"><path d="m200.457031 420.882812-.679687 2.050782c-2.222656 6.652344-7.382813 11.910156-13.996094 14.25l-2.304688.765625.769532-2.046875c2.167968-6.683594 7.351562-11.960938 13.992187-14.25zm0 0" fill="#37474f"></path><path d="m494.859375 503.488281h-10.324219l-3.5-13.910156c-.5625-2.089844-1.457031-4.078125-2.644531-5.890625l-11.09375-16.382812c-2.78125-4.171876-7.113281-7.0625-12.03125-8.019532l-26.285156-5.207031c-5.714844-1.105469-10.59375-4.792969-13.226563-9.984375l-8.960937-17.75c-2.628907-5.191406-7.511719-8.875-13.226563-9.984375l-13.140625-2.558594c4.28125-5.804687 8.183594-11.875 11.691407-18.175781l18.515624 3.667969c5.714844 1.109375 10.597657 4.792969 13.230469 9.984375l8.957031 17.75c2.632813 5.191406 7.511719 8.878906 13.226563 9.984375l26.285156 5.207031c4.917969.957031 9.253907 3.847656 12.03125 8.019531l11.09375 16.382813c1.1875 1.8125 2.082031 3.800781 2.644531 5.890625l5.121094 20.394531c.632813 2.558594.046875 5.269531-1.589844 7.339844-1.636718 2.066406-4.136718 3.265625-6.773437 3.242187zm0 0" fill="#37474f"></path><path d="m484.535156 503.488281h-467.371094c-2.640624.023438-5.140624-1.175781-6.773437-3.242187-1.636719-2.070313-2.222656-4.78125-1.589844-7.339844l5.121094-20.394531c.5625-2.089844 1.453125-4.078125 2.644531-5.890625l4.691406-6.910156 6.402344-9.472657c2.777344-4.171875 7.109375-7.0625 12.03125-8.019531l26.027344-5.121094.253906-.085937c5.714844-1.105469 10.597656-4.792969 13.226563-9.984375l5.375-10.75 3.585937-7c2.628906-5.191406 7.511719-8.875 13.226563-9.984375l18.601562-3.667969c11.464844 21.828125 28 40.585938 48.214844 54.699219.121094.136719.265625.253906.425781.339843 6.652344-1.710937 12.132813-6.40625 14.847656-12.714843l2.304688-.765625c6.613281-2.339844 11.773438-7.597656 13.996094-14.25l.679687-2.050782 2.390625-.765624c6.613282-2.339844 11.773438-7.597657 13.996094-14.25l.511719-1.539063.683593-2.132813c2.328126-7.273437 8.222657-12.84375 15.613282-14.761718l4.695312-1.195313c11.585938-2.988281 23.742188-2.988281 35.328125 0l4.691407 1.195313c7.394531 1.917968 13.285156 7.488281 15.617187 14.761718l1.195313 3.671876c2.21875 6.652343 7.382812 11.910156 13.992187 14.25l4.609375 1.535156c6.644531 2.289062 11.828125 7.566406 13.996094 14.25 2.328125 7.273437 8.222656 12.847656 15.613281 14.761718 3.972656-2.777343 7.789063-5.769531 11.4375-8.957031 9.636719-8.226562 18.234375-17.597656 25.597656-27.90625l13.140625 2.558594c5.714844 1.109375 10.597656 4.792969 13.226563 9.984375l8.960937 17.75c2.632813 5.191406 7.511719 8.878906 13.226563 9.984375l26.285156 5.207031c4.917969.957032 9.25 3.847656 12.03125 8.019532l11.09375 16.382812c1.1875 1.8125 2.082031 3.800781 2.644531 5.890625zm0 0" fill="#607d8b"></path><g fill="#37474f"><path d="m84.574219 416.277344-5.375 10.75c-2.628907 5.191406-7.511719 8.878906-13.226563 9.984375l-.253906.085937 5.375-10.753906c2.628906-5.191406 7.511719-8.875 13.226562-9.984375zm0 0"></path><path d="m183.476562 437.949219c-2.714843 6.308593-8.195312 11.003906-14.847656 12.714843-.160156-.085937-.304687-.203124-.425781-.339843 2.597656-5.449219 7.269531-9.628907 12.96875-11.605469zm0 0"></path><path d="m217.355469 404.328125-.511719 1.539063c-2.222656 6.652343-7.382812 11.910156-13.996094 14.25l-2.390625.765624.515625-1.621093c2.328125-7.273438 8.222656-12.84375 15.613282-14.761719zm0 0"></path><path d="m380.425781 413.800781c-7.363281 10.308594-15.960937 19.679688-25.597656 27.90625 7.730469-8.941406 14.507813-18.667969 20.222656-29.015625zm0 0"></path></g><path d="m198.238281 404.585938 2.21875-.769532-.679687 2.050782c-2.222656 6.652343-7.382813 11.910156-13.996094 14.25l-2.21875.765624c.257812-.765624.511719-1.449218.683594-2.046874 2.167968-6.683594 7.351562-11.960938 13.992187-14.25zm0 0" fill="#424242"></path><path d="m426.675781 503.488281h-22.695312c-2.492188-5.890625-7.359375-10.449219-13.398438-12.546875l-12.289062-4.179687c-1.867188-.65625-3.644531-1.546875-5.289063-2.644531l-17.578125-11.949219c-3.59375-2.460938-7.851562-3.769531-12.203125-3.753907h-11.519531c-9.558594 0-38.574219-6.910156-41.558594-16.128906-2.21875-6.738281-1.964843-14.847656-8.535156-17.066406l-17.066406-8.53125c-6.570313-2.304688-14.847657-1.878906-17.066407-8.535156v-17.066406c-2.386718-7.339844 21.164063-11.773438 13.824219-13.652344l-4.691406-1.195313c-11.589844-2.988281-23.742187-2.988281-35.328125 0l-3.925781 1.023438.683593-2.132813c2.328126-7.273437 8.222657-12.84375 15.613282-14.761718l4.695312-1.195313c11.585938-2.988281 23.742188-2.988281 35.328125 0l4.691407 1.195313c7.394531 1.917968 13.285156 7.488281 15.617187 14.761718l1.195313 3.667969c2.21875 6.65625 7.382812 11.914063 13.992187 14.253906l4.609375 1.535157c6.644531 2.289062 11.828125 7.566406 13.996094 14.25 2.984375 9.214843 11.433594 32.511718 20.992187 32.511718h11.519531c4.351563-.015625 8.609376 1.292969 12.203126 3.753906l17.578124 11.949219c1.644532 1.097657 3.421876 1.988281 5.289063 2.644531l12.289063 4.179688c6.621093 2.28125 11.796874 7.519531 13.996093 14.167969zm0 0" fill="#424242"></path><path d="m403.980469 503.488281h-318.636719l4.351562-13.398437.683594-2.046875c2.199219-6.648438 7.375-11.886719 13.996094-14.167969l12.285156-4.179688c1.867188-.65625 3.644532-1.546874 5.292969-2.644531l17.578125-11.949219c3.589844-2.460937 7.847656-3.769531 12.203125-3.753906h11.519531c4.777344 0 9.300782-5.800781 12.96875-12.800781 2.894532-5.691406 5.347656-11.597656 7.339844-17.664063l2.21875-.765624c6.613281-2.339844 11.773438-7.597657 13.996094-14.25l.679687-2.050782 2.390625-.765625c6.613282-2.339843 11.773438-7.597656 13.996094-14.253906l.511719-1.535156 3.925781-1.023438c11.585938-2.988281 23.738281-2.988281 35.328125 0l4.691406 1.195313c15.359375 3.917968 16.113281 21.777344 22.742188 33.28125 3.53125 4.890625 7.984375 9.046875 13.105469 12.234375 5.3125 4.097656 9.480468 9.488281 12.109374 15.660156 3.636719 7.738281 12.902344 19.824219 22.445313 19.824219h11.519531c4.351563-.019532 8.609375 1.292968 12.203125 3.753906l17.578125 11.945312c1.644532 1.101563 3.421875 1.988282 5.289063 2.644532l12.289062 4.183594c6.035157 2.089843 10.902344 6.644531 13.398438 12.527343zm0 0" fill="#9e9e9e"></path><path d="m181.171875 421.652344 2.390625-.769532c-1.992188 6.066407-4.445312 11.972657-7.339844 17.664063-3.667968 7-8.191406 12.800781-12.96875 12.800781h-2.046875c2.300781-5.023437 4.296875-10.179687 5.972657-15.445312 2.167968-6.683594 7.351562-11.960938 13.992187-14.25zm0 0" fill="#424242"></path><path d="m217.355469 387.261719-.511719 1.535156c-2.222656 6.65625-7.382812 11.914063-13.996094 14.253906l-2.390625.765625.515625-1.621094c2.328125-7.273437 8.222656-12.84375 15.613282-14.761718zm0 0" fill="#424242"></path><path d="m332.8125 503.488281h-153.601562l22.785156-22.785156c7.449218-7.453125 16.535156-13.066406 26.539062-16.382813 4.796875-1.363281 9.710938-2.277343 14.675782-2.730468 4.25-.476563 8.523437-.730469 12.800781-.769532 9.269531.007813 18.5 1.183594 27.476562 3.5 10 3.316407 19.089844 8.929688 26.539063 16.382813zm0 0" fill="#37474f"></path><path d="m307.210938 503.488281h-128l22.785156-22.785156c7.449218-7.453125 16.535156-13.066406 26.539062-16.382813 4.796875-1.363281 9.710938-2.277343 14.675782-2.730468 4.964843.453125 9.878906 1.367187 14.675781 2.730468 10.003906 3.316407 19.089843 8.929688 26.539062 16.382813zm0 0" fill="#607d8b"></path><path d="m179.210938 76.820312c.011718 9.558594-3.992188 18.679688-11.035157 25.140626-7.042969 6.457031-16.480469 9.660156-26 8.820312-1.179687-.015625-2.351562-.15625-3.5-.425781-16.425781-3.40625-28.085937-18.042969-27.730469-34.816407-.324218-15.820312 2.910157-31.507812 9.472657-45.910156 3.460937-7.996094 8.960937-14.941406 15.957031-20.136718 1.695312-1.070313 3.828125-1.167969 5.613281-.257813 1.785157.910156 2.957031 2.695313 3.089844 4.695313 3.582031 41.726562 34.132813 38.828124 34.132813 62.890624zm0 0" fill="#ffb301"></path><path d="m153.609375 85.351562c.03125 9.730469-4.136719 18.996094-11.433594 25.429688-1.179687-.015625-2.351562-.15625-3.5-.425781-16.425781-3.40625-28.085937-18.042969-27.730469-34.816407-.324218-15.820312 2.910157-31.507812 9.472657-45.910156 6.226562 34.304688 33.191406 33.109375 33.191406 55.722656zm0 0" fill="#fec108"></path><path d="m418.144531 290.152344c0 76.800781-34.816406 132.78125-74.753906 160.511718-5.484375-1.441406-10.230469-4.878906-13.3125-9.640624 34.5625-30.039063 62.464844-82.089844 62.464844-150.871094 0-143.273438-90.707031-225.449219-149.671875-262.742188-3.570313-4.742187-7.417969-9.273437-11.523438-13.566406-1.066406-1.054688-1.214844-2.730469-.347656-3.957031.867188-1.226563 2.496094-1.648438 3.847656-.992188 47.105469 21.84375 183.296875 105.726563 183.296875 281.257813zm0 0" fill="#ffb301"></path><path d="m392.542969 290.152344c0 68.78125-27.902344 120.832031-62.464844 150.871094-.9375-1.625-1.710937-3.339844-2.300781-5.121094-2.21875-6.652344-7.382813-11.910156-13.996094-14.25l-4.609375-1.535156c-6.609375-2.339844-11.773437-7.597657-13.992187-14.25l-1.195313-3.671876c-2.332031-7.273437-8.222656-12.84375-15.617187-14.761718l-4.691407-1.195313c-9.960937-2.539062-20.347656-2.917969-30.464843-1.109375-1.621094.339844-3.242188.683594-4.863282 1.109375l-4.695312 1.195313c-7.390625 1.917968-13.285156 7.488281-15.613282 14.761718l-1.195312 3.671876c-2.222656 6.652343-7.382812 11.910156-13.996094 14.25l-2.558594.851562-2.050781.683594c-6.640625 2.289062-11.824219 7.566406-13.992187 14.25-2.328125 7.273437-8.222656 12.847656-15.617188 14.761718-4.289062-2.996093-8.417968-6.214843-12.371094-9.640624-34.21875-29.121094-53.910156-71.804688-53.847656-116.738282 0-128 162.132813-170.664062 162.132813-247.464844 0-15.785156-10.921875-35.15625-21.671875-49.410156 58.964844 37.292969 149.671875 119.46875 149.671875 262.742188zm0 0" fill="#fec108"></path><path d="m357.8125 298.175781c-.335938 40.425781-15.378906 79.34375-42.324219 109.480469-2.132812-2.816406-5.121093 11.691406-8.535156 10.496094l-3.921875-1.277344c-4.78125-2.515625-8.460938-6.710938-10.328125-11.777344 25.652344-29.742187 39.871094-67.648437 40.109375-106.921875 0-67.160156-21.421875-105.644531-38.402344-127.914062 1.753906-3.964844 3.042969-8.117188 3.839844-12.375.269531-1.890625 1.605469-3.460938 3.429688-4.027344 1.824218-.5625 3.8125-.027344 5.105468 1.382813 16.042969 18.089843 51.027344 57.085937 51.027344 142.933593zm0 0" fill="#fdd834"></path><path d="m332.8125 298.175781c-.238281 39.273438-14.457031 77.179688-40.109375 106.921875-.632813-1.296875-1.175781-2.636718-1.621094-4.011718l-1.023437-3.15625c-2.019532-6.21875-7.070313-10.980469-13.398438-12.628907l-4.007812-1.023437c-9.019532-2.332032-18.453125-2.535156-27.5625-.597656-.894532.148437-1.777344.347656-2.648438.597656l-4.007812 1.023437c-6.328125 1.648438-11.378906 6.410157-13.398438 12.628907l-1.023437 3.15625c-1.878907 5.71875-6.316407-2.730469-11.949219-.765626l-2.21875.765626c-2.132812-2.902344-4.265625-5.972657-6.398438-9.300782-14.324218-19.964844-22.726562-43.570312-24.234374-68.097656 0-74.75 92.84375-102.226562 115.199218-153.425781 16.980469 22.269531 38.402344 60.753906 38.402344 127.914062zm0 0" fill="#ffeb3a"></path><path d="m332.8125 300.734375c.074219 27.457031-7.394531 54.40625-21.589844 77.910156-4.644531-3.417969-9.726562-6.203125-15.105468-8.277343-2.710938-1.128907-5.507813-2.039063-8.363282-2.730469l-5.632812-1.453125c-10.230469-2.625-20.753906-3.945313-31.316406-3.921875-3.304688-.03125-6.609376.113281-9.898438.425781-3.261719-.3125-6.535156-.457031-9.8125-.425781-7.875-.035157-15.738281.710937-23.46875 2.21875-4.886719-10.355469-7.644531-21.585938-8.105469-33.027344 0-32.597656 24.148438-54.953125 63.828125-87.804687 11.691406-9.730469 23.894532-19.800782 35.160156-30.890626 4.605469-4.609374 9.128907-9.304687 13.3125-14.253906 14.953126 31.949219 22.144532 66.976563 20.992188 102.230469zm0 0" fill="#ffb301"></path><path d="m313.097656 300.734375c.109375 24.25-5.71875 48.15625-16.980468 69.632813-2.710938-1.128907-5.507813-2.039063-8.363282-2.730469l-5.632812-1.453125c-10.230469-2.625-20.753906-3.945313-31.316406-3.921875-3.304688-.03125-6.609376.113281-9.898438.425781-3.261719-.3125-6.535156-.457031-9.8125-.425781-7.875-.035157-15.738281.710937-23.46875 2.21875-4.886719-10.355469-7.644531-21.585938-8.105469-33.027344 0-32.597656 24.148438-54.953125 63.828125-87.804687 11.691406-9.730469 23.894532-19.800782 35.160156-30.890626 10.304688 28.15625 15.253907 57.996094 14.589844 87.976563zm0 0" fill="#fec108"></path><path d="m298.675781 299.199219c.015625 12.609375-1.414062 25.179687-4.265625 37.460937-5.203125-1.195312-10.324218-2.21875-15.617187-3.15625-13.84375-2.320312-27.859375-3.492187-41.898438-3.5-2.472656 0-4.949219 0-7.421875.171875-1.28125-.085937-2.5625-.085937-3.839844-.085937 7.59375-14.761719 25.597657-32.257813 55.808594-57.769532 4.265625-3.671874 8.875-7.511718 13.738282-11.523437l1.535156-1.277344c1.320312 13.183594 1.976562 26.429688 1.960937 39.679688zm0 0" fill="#f57c00"></path><path d="m229.472656 330.175781c-1.28125 0-2.644531.085938-4.011718.167969 0-.082031.085937-.167969.171874-.253906 1.277344 0 2.558594 0 3.839844.085937zm0 0" fill="#f57c00"></path><path d="m426.675781 512.019531h-341.332031c-2.734375.003907-5.304688-1.308593-6.910156-3.523437-1.609375-2.214844-2.054688-5.0625-1.203125-7.664063l5.042969-15.359375c3.015624-9.21875 10.167968-16.5 19.335937-19.679687l12.320313-4.179688c1.140624-.390625 2.222656-.929687 3.21875-1.605469l17.5625-11.945312c5.03125-3.429688 10.976562-5.261719 17.066406-5.257812h11.511718c5.894532-.050782 11.089844-3.894532 12.859376-9.523438 3.015624-9.222656 10.171874-16.503906 19.34375-19.675781l4.632812-1.570313c4.09375-1.425781 7.28125-4.691406 8.609375-8.816406l1.203125-3.675781c3.222656-10.050781 11.382812-17.734375 21.609375-20.34375l4.683594-1.195313c12.988281-3.300781 26.597656-3.300781 39.585937 0l4.667969 1.175782c10.21875 2.613281 18.378906 10.289062 21.605469 20.328124l1.203125 3.679688c1.332031 4.125 4.519531 7.386719 8.609375 8.8125l4.636718 1.570312c9.171876 3.171876 16.332032 10.457032 19.34375 19.6875 1.785157 5.613282 6.96875 9.449219 12.859376 9.515626h11.511718c6.089844-.007813 12.035156 1.824218 17.066406 5.253906l17.570313 11.949218c1 .675782 2.082031 1.214844 3.226563 1.601563l12.304687 4.183594c9.167969 3.171875 16.328125 10.453125 19.34375 19.675781l5.042969 15.359375c.867187 2.609375.421875 5.472656-1.1875 7.699219-1.613282 2.222656-4.195313 3.535156-6.945313 3.523437zm-329.5625-17.066406h317.796875l-1.382812-4.214844c-1.332032-4.128906-4.523438-7.394531-8.617188-8.824219l-12.296875-4.179687c-2.59375-.882813-5.054687-2.109375-7.324219-3.644531l-17.578124-11.945313c-2.195313-1.503906-4.792969-2.3125-7.457032-2.316406h-11.511718c-13.28125-.035156-25.027344-8.628906-29.082032-21.28125-1.328125-4.125-4.515625-7.390625-8.609375-8.824219l-4.632812-1.566406c-9.175781-3.171875-16.335938-10.453125-19.347657-19.679688l-1.203124-3.667968c-1.414063-4.496094-5.042969-7.945313-9.605469-9.125l-4.660157-1.183594c-10.230468-2.597656-20.945312-2.597656-31.171874 0l-4.6875 1.195312c-4.558594 1.179688-8.1875 4.628907-9.597657 9.121094l-1.195312 3.667969c-3.011719 9.226563-10.171875 16.511719-19.34375 19.679687l-4.632813 1.570313c-4.09375 1.429687-7.28125 4.695313-8.613281 8.820313-4.050781 12.652343-15.796875 21.246093-29.082031 21.285156h-11.511719c-2.664063 0-5.265625.808594-7.464844 2.3125l-17.5625 11.945312c-2.265625 1.535156-4.730469 2.757813-7.320312 3.644532l-12.3125 4.179687c-4.09375 1.433594-7.277344 4.699219-8.613281 8.824219zm0 0"></path><path d="m332.8125 512.019531h-153.601562c-3.449219 0-6.5625-2.078125-7.882813-5.269531-1.320313-3.1875-.589844-6.855469 1.847656-9.296875l22.828125-22.828125c8.382813-8.359375 18.582032-14.667969 29.808594-18.429688 19.792969-5.210937 40.597656-5.210937 60.390625 0 11.226563 3.761719 21.429687 10.070313 29.8125 18.429688l22.828125 22.828125c2.441406 2.441406 3.167969 6.109375 1.847656 9.296875-1.320312 3.191406-4.429687 5.269531-7.878906 5.269531zm-133.003906-17.066406h112.402344l-8.261719-8.261719c-6.503907-6.488281-14.425781-11.382812-23.140625-14.300781-16.285156-4.050781-33.3125-4.050781-49.597656 0-8.710938 2.917969-16.632813 7.8125-23.140626 14.300781zm0 0"></path><path d="m343.359375 459.164062c-.71875 0-1.433594-.085937-2.125-.265624-10.207031-2.628907-18.347656-10.308594-21.574219-20.34375-1.328125-4.125-4.515625-7.390626-8.609375-8.820313l-4.632812-1.570313c-9.175781-3.167968-16.335938-10.453124-19.347657-19.679687l-1.203124-3.667969c-1.414063-4.496094-5.042969-7.945312-9.605469-9.121094l-4.667969-1.1875c-10.226562-2.605468-20.941406-2.605468-31.164062 0l-4.675782 1.195313c-4.5625 1.175781-8.191406 4.621094-9.609375 9.113281l-1.195312 3.667969c-3.011719 9.226563-10.171875 16.511719-19.34375 19.679687l-4.632813 1.570313c-4.09375 1.429687-7.28125 4.695313-8.613281 8.820313-3.222656 10.035156-11.367187 17.714843-21.570313 20.34375-2.402343.617187-4.953124.160156-6.988281-1.253907-43.761719-30.300781-69.886719-80.128906-69.921875-133.359375 0-76.003906 52.777344-122.160156 99.34375-162.890625 33.6875-29.476562 62.789063-54.921875 62.789063-84.574219 0-18.519531-18.902344-44.824218-30.816407-57.0625-3.957031-3.980468-4.449218-10.246093-1.160156-14.796874 3.21875-4.644532 9.328125-6.269532 14.429688-3.839844 31.429687 14.609375 188.210937 97.195312 188.210937 289.03125 0 70.828125-29.328125 133.445312-78.453125 167.492187-1.429687.992188-3.125 1.519531-4.863281 1.519531zm-89.054687-430.394531c10.644531 13.933594 17.152343 30.589844 18.773437 48.050781 0 37.394532-33.332031 66.558594-68.625 97.417969-43.828125 38.339844-93.507813 81.78125-93.507813 150.046875.03125 46.054688 21.898438 89.363282 58.9375 116.730469 2.976563-1.722656 5.203126-4.488281 6.257813-7.757813 3.011719-9.230468 10.167969-16.515624 19.34375-19.6875l4.632813-1.570312c4.09375-1.425781 7.28125-4.6875 8.609374-8.8125l1.203126-3.679688c3.21875-10.046874 11.382812-17.734374 21.609374-20.34375l4.683594-1.195312c12.984375-3.292969 26.589844-3.292969 39.578125 0l4.675781 1.1875c10.226563 2.613281 18.390626 10.300781 21.613282 20.351562l1.203125 3.679688c1.332031 4.125 4.519531 7.386719 8.609375 8.8125l4.636718 1.570312c9.171876 3.171876 16.332032 10.457032 19.34375 19.6875 1.046876 3.269532 3.273438 6.03125 6.246094 7.746094 42.34375-31.382812 67.480469-87.414062 67.480469-150.851562 0-151.730469-103.847656-231.253906-155.304687-261.382813zm0 0"></path><path d="m145.007812 119.488281c-2.644531-.003906-5.289062-.242187-7.890624-.71875-20.453126-4.257812-35.011719-22.425781-34.707032-43.316406.34375-39.738281 15.308594-63.8125 29.210938-73.085937 4.105468-2.765626 9.378906-3.125 13.824218-.9375 4.609376 2.210937 7.710938 6.691406 8.164063 11.78125.605469 13.832031 7.367187 26.667968 18.433594 34.988281 9.441406 6.539062 15.257812 17.140625 15.699219 28.621093 0 11.328126-4.503907 22.191407-12.519532 30.195313-8.015625 8-18.886718 12.488281-30.214844 12.472656zm-7.839843-99.671875c-8.703125 8.609375-17.453125 27.015625-17.691407 55.773438-.304687 12.617187 8.375 23.675781 20.703126 26.378906 7.507812 1.460938 15.28125-.507812 21.183593-5.375 5.902344-4.871094 9.320313-12.121094 9.3125-19.773438 0-6.554687-3.097656-9.617187-10.09375-15.933593-12.898437-10.082031-21.3125-24.839844-23.414062-41.078125zm0 0"></path><path d="m306.597656 427.539062c-1.269531-.003906-2.515625-.296874-3.652344-.851562-7.539062-3.671875-13.261718-10.253906-15.847656-18.226562l-1.203125-3.671876c-1.414062-4.492187-5.046875-7.941406-9.609375-9.121093l-4.667968-1.1875c-10.222657-2.601563-20.933594-2.601563-31.152344 0l-4.6875 1.195312c-4.574219 1.175781-8.21875 4.632813-9.632813 9.140625l-1.195312 3.667969c-.515625 1.589844-1.160157 3.132813-1.929688 4.617187-1.34375 2.589844-3.917969 4.3125-6.824219 4.566407-2.898437.285156-5.738281-.945313-7.511718-3.253907-17.320313-22.21875-38.007813-55.898437-38.007813-90.128906 0-49.160156 36.429688-79.359375 68.558594-105.964844 23.960937-19.859374 46.59375-38.605468 51.003906-62.019531.933594-5.160156 4.738281-9.328125 9.789063-10.726562 4.917968-1.375 10.191406.191406 13.558594 4.035156l-6.375 5.71875 6.542968-5.480469c15.917969 17.851563 53.191406 59.769532 53.191406 148.839844 0 60.6875-30.867187 101.050781-54.085937 126.128906-1.617187 1.742188-3.886719 2.726563-6.261719 2.722656zm-50.585937-52.050781c6.671875-.007812 13.320312.824219 19.789062 2.472657l4.675781 1.1875c10.230469 2.613281 18.394532 10.304687 21.613282 20.359374l1.203125 3.679688c.507812 1.539062 1.273437 2.980469 2.261719 4.265625 27.894531-29.414063 43.714843-68.234375 44.324218-108.765625 0-75.5625-27.640625-113.066406-44.496094-132.566406-7.78125 25.992187-30.898437 45.148437-55.25 65.339844-30.679687 25.414062-62.390624 51.6875-62.390624 92.824218 0 24.066406 12.5625 48.640625 25.746093 67.796875 4.179688-6.421875 10.621094-11.035156 18.050781-12.917969l4.683594-1.195312c6.464844-1.648438 13.113282-2.484375 19.789063-2.480469zm51.199219-220.160156-6.375 5.664063.171874.1875zm0 0"></path><path d="m494.859375 512.019531h-477.695313c-5.304687.023438-10.3125-2.421875-13.5625-6.613281-3.234374-4.132812-4.363281-9.535156-3.0625-14.617188l5.121094-20.378906c.765625-3.039062 2.050782-5.925781 3.796875-8.53125l11.09375-16.460937c4.046875-6.019531 10.320313-10.183594 17.441407-11.570313l26.34375-5.222656c3.117187-.617188 5.78125-2.628906 7.234374-5.453125l8.96875-17.757813c3.789063-7.546874 10.867188-12.90625 19.15625-14.507812l18.585938-3.695312c3.707031-.710938 7.445312 1.074218 9.21875 4.402343 10.242188 19.433594 24.722656 36.3125 42.375 49.382813 2.976562-1.71875 5.203125-4.484375 6.253906-7.757813 3.011719-9.226562 10.171875-16.511719 19.347656-19.683593l4.632813-1.570313c4.09375-1.429687 7.277344-4.691406 8.609375-8.816406l1.203125-3.675781c3.21875-10.050782 11.382813-17.734376 21.605469-20.34375l4.6875-1.195313c12.984375-3.292969 26.589844-3.292969 39.574218 0l4.679688 1.1875c10.234375 2.609375 18.402344 10.308594 21.621094 20.367187l1.203125 3.679688c1.332031 4.125 4.519531 7.386719 8.609375 8.8125l4.636718 1.570312c9.171876 3.171876 16.332032 10.457032 19.34375 19.6875 1.054688 3.265626 3.277344 6.023438 6.246094 7.746094 17.488282-13.371094 31.984375-30.257812 42.554688-49.570312 1.816406-3.210938 5.484375-4.902344 9.105468-4.207032l18.535157 3.695313c8.289062 1.605469 15.363281 6.964844 19.148437 14.507813l8.96875 17.757812c1.453125 2.828125 4.117188 4.835938 7.238282 5.453125l26.339843 5.222656c7.125 1.394531 13.402344 5.566407 17.441407 11.597657l11.09375 16.453124c1.753906 2.601563 3.039062 5.488282 3.808593 8.53125l5.117188 20.371094c1.304687 5.082032.171875 10.484375-3.0625 14.617188-3.253907 4.179687-8.261719 6.613281-13.558594 6.585937zm0-17.066406h.085937l-5.121093-20.386719c-.285157-1.132812-.761719-2.207031-1.417969-3.171875l-11.09375-16.445312c-1.542969-2.261719-3.910156-3.824219-6.59375-4.359375l-26.34375-5.222656c-8.289062-1.605469-15.363281-6.964844-19.15625-14.507813l-8.976562-17.742187c-1.433594-2.84375-4.109376-4.859376-7.238282-5.453126l-12.558594-2.5c-12.214843 20.6875-28.644531 38.566407-48.222656 52.480469-2.039062 1.414063-4.589844 1.871094-6.988281 1.253907-10.207031-2.628907-18.347656-10.308594-21.574219-20.34375-1.328125-4.125-4.515625-7.390626-8.609375-8.820313l-4.632812-1.570313c-9.175781-3.167968-16.335938-10.453124-19.347657-19.679687l-1.203124-3.667969c-1.414063-4.496094-5.042969-7.945312-9.605469-9.121094l-4.667969-1.1875c-10.226562-2.605468-20.941406-2.605468-31.164062 0l-4.675782 1.195313c-4.5625 1.175781-8.191406 4.621094-9.609375 9.113281l-1.195312 3.667969c-3.011719 9.226563-10.171875 16.511719-19.34375 19.679687l-4.632813 1.570313c-4.09375 1.429687-7.28125 4.695313-8.613281 8.820313-3.222656 10.035156-11.367187 17.714843-21.570313 20.34375-2.398437.621093-4.949218.164062-6.980468-1.253907-19.769532-13.71875-36.265625-31.632812-48.316406-52.460937l-12.476563 2.480468c-3.128906.59375-5.800781 2.609376-7.234375 5.453126l-8.96875 17.757812c-3.792969 7.542969-10.867188 12.902344-19.15625 14.507812l-26.34375 5.195313c-2.683594.535156-5.054688 2.101563-6.597656 4.363281l-11.09375 16.453125c-.648438.964844-1.125 2.035157-1.40625 3.164063l-5.136719 20.394531zm0 0"></path><path d="m469.34375 401.085938c-4.710938 0-8.53125-3.820313-8.53125-8.53125v-34.132813c0-4.714844 3.820312-8.535156 8.53125-8.535156 4.714844 0 8.535156 3.820312 8.535156 8.535156v34.132813c0 4.710937-3.820312 8.53125-8.535156 8.53125zm0 0"></path><path d="m486.410156 384.019531h-34.132812c-4.710938 0-8.535156-3.820312-8.535156-8.53125 0-4.714843 3.824218-8.535156 8.535156-8.535156h34.132812c4.714844 0 8.535156 3.820313 8.535156 8.535156 0 4.710938-3.820312 8.53125-8.535156 8.53125zm0 0"></path><path d="m85.34375 196.285156c-4.710938 0-8.53125-3.820312-8.53125-8.53125v-34.132812c0-4.714844 3.820312-8.535156 8.53125-8.535156 4.714844 0 8.535156 3.820312 8.535156 8.535156v34.132812c0 4.710938-3.820312 8.53125-8.535156 8.53125zm0 0"></path><path d="m102.410156 179.21875h-34.132812c-4.710938 0-8.535156-3.820312-8.535156-8.53125 0-4.714844 3.824218-8.535156 8.535156-8.535156h34.132812c4.714844 0 8.535156 3.820312 8.535156 8.535156 0 4.710938-3.820312 8.53125-8.535156 8.53125zm0 0"></path></svg>